<?xml version="1.0" standalone="no"?>
<!DOCTYPE svg PUBLIC "-//W3C//DTD SVG 20010904//EN"
 "http://www.w3.org/TR/2001/REC-SVG-20010904/DTD/svg10.dtd">
<svg version="1.0" xmlns="http://www.w3.org/2000/svg"
 width="300.000000pt" height="300.000000pt" viewBox="0 0 583.000000 626.000000"
 preserveAspectRatio="xMidYMid meet">

<g transform="translate(0.000000,626.000000) scale(0.100000,-0.100000)"
fill="#000000" stroke="none">
<path d="M2652 5657 c-37 -39 -54 -80 -46 -113 8 -33 40 -29 67 8 21 29 35
122 20 131 -6 4 -24 -8 -41 -26z"/>
<path d="M3135 5671 c-17 -54 25 -151 65 -151 46 0 28 91 -28 143 -30 28 -30
29 -37 8z"/>
<path d="M2817 5646 c-57 -35 -95 -75 -108 -113 -15 -47 -6 -63 36 -63 48 0
71 14 91 53 15 28 44 120 44 140 0 13 -24 7 -63 -17z"/>
<path d="M2950 5663 c0 -20 29 -112 44 -140 9 -18 25 -37 35 -43 29 -15 91
-13 97 5 10 26 -17 83 -56 119 -55 49 -120 81 -120 59z"/>
<path d="M2406 5600 c-42 -90 -30 -182 22 -166 12 4 29 21 38 38 17 33 11 75
-20 148 l-14 35 -26 -55z"/>
<path d="M3370 5582 c-20 -64 -20 -72 -7 -105 31 -72 87 -54 87 27 0 35 -41
146 -53 146 -3 0 -14 -31 -27 -68z"/>
<path d="M2138 5523 c-31 -20 -36 -33 -12 -33 9 0 37 -18 62 -41 37 -32 51
-39 71 -34 56 14 66 47 28 91 -30 35 -108 44 -149 17z"/>
<path d="M3563 5520 c-58 -35 -54 -90 7 -105 21 -5 35 2 72 34 25 23 53 41 62
41 25 0 19 14 -13 33 -38 23 -88 22 -128 -3z"/>
<path d="M2536 5480 c-26 -65 -21 -116 13 -151 16 -16 39 -29 50 -29 30 0 56
57 47 102 -6 33 -68 118 -86 118 -4 0 -15 -18 -24 -40z"/>
<path d="M3231 5485 c-44 -50 -57 -101 -37 -148 19 -46 46 -49 87 -8 23 24 29
38 29 74 0 46 -24 117 -39 117 -5 0 -23 -16 -40 -35z"/>
<path d="M2010 5499 c-13 -6 -39 -21 -57 -35 -59 -45 -65 -142 -13 -189 25
-22 60 -10 86 30 15 23 16 34 6 90 -8 43 -9 72 -2 89 5 14 8 26 7 25 -1 0 -13
-5 -27 -10z"/>
<path d="M3801 5483 c6 -17 6 -44 -2 -83 -13 -68 -1 -105 43 -129 24 -14 28
-14 47 3 73 66 36 184 -71 225 -26 10 -27 9 -17 -16z"/>
<path d="M3485 5473 c-20 -83 -81 -140 -212 -200 -64 -29 -64 -29 -108 59 -32
65 -62 93 -110 104 l-30 6 34 -25 c19 -15 45 -42 59 -62 85 -118 -16 -409
-165 -480 -44 -21 -73 -12 -134 43 -104 94 -169 301 -125 405 7 18 35 52 61
76 44 41 46 43 19 37 -51 -13 -75 -36 -106 -101 -41 -89 -46 -92 -112 -62
-122 56 -181 108 -209 187 -4 12 -6 12 -6 -2 -2 -32 41 -129 71 -164 16 -18
56 -50 89 -69 79 -48 121 -100 160 -198 17 -45 50 -111 72 -147 22 -36 56 -92
76 -125 l36 -60 -1 -115 c-1 -63 -6 -127 -12 -142 -10 -24 -17 -28 -52 -28
-43 0 -131 30 -225 77 -33 17 -97 42 -142 57 -133 44 -193 114 -238 278 -13
50 -21 60 -58 82 -64 38 -93 74 -122 151 -28 72 -95 208 -120 241 -8 11 8 -34
36 -99 27 -65 59 -156 71 -203 21 -87 28 -97 102 -157 20 -16 27 -29 23 -40
-8 -22 -104 -23 -240 -2 -114 17 -164 37 -254 101 -59 42 -191 110 -198 102
-2 -2 24 -18 58 -36 34 -18 100 -60 147 -94 122 -88 158 -103 324 -137 82 -17
159 -37 172 -46 12 -8 43 -46 68 -85 55 -85 105 -119 225 -156 230 -69 346
-193 371 -394 17 -144 -19 -480 -57 -522 -15 -17 -26 -19 -71 -15 -115 12
-206 83 -433 339 -245 275 -219 261 -479 268 -254 7 -243 2 -443 233 -55 63
-143 127 -176 127 -8 0 7 -14 33 -31 45 -30 91 -82 229 -260 91 -118 97 -121
372 -164 136 -21 211 -58 271 -133 78 -99 197 -323 180 -339 -4 -4 -66 -8
-139 -10 -127 -3 -137 -4 -266 -49 -183 -63 -168 -66 -476 110 -181 104 -273
141 -387 156 -89 12 -155 9 -83 -4 140 -24 268 -77 412 -172 88 -56 233 -171
233 -183 0 -3 -28 -17 -62 -30 -35 -13 -130 -57 -213 -97 -157 -78 -240 -103
-350 -105 -58 -1 -59 -2 -20 -10 102 -21 226 -1 394 62 57 22 106 38 107 36 2
-2 -17 -35 -42 -73 -63 -95 -70 -110 -84 -179 -17 -83 -23 -91 -88 -124 -31
-16 -77 -51 -102 -78 -75 -79 -88 -100 -34 -53 28 25 87 64 130 87 96 51 116
71 144 144 30 81 113 216 167 271 79 81 133 102 343 138 102 17 226 33 275 36
87 6 94 5 210 -36 278 -98 328 -146 405 -385 30 -95 32 -105 25 -200 -5 -85
-50 -390 -85 -574 -11 -59 -36 -103 -80 -138 -42 -34 -481 -303 -504 -309 -12
-2 -43 2 -71 11 -80 24 -169 19 -280 -15 -102 -31 -138 -36 -177 -21 -38 14
-87 71 -118 138 -17 35 -32 63 -34 63 -2 0 4 -23 15 -50 10 -28 19 -65 19 -84
0 -72 41 -126 95 -126 9 0 13 -4 10 -10 -18 -29 -215 5 -290 51 l-50 31 45
-47 c67 -70 103 -84 239 -97 159 -15 213 -7 297 44 102 61 118 64 229 32 l95
-28 192 37 c105 20 194 35 197 32 12 -13 -127 -138 -185 -166 -82 -41 -153
-46 -298 -24 l-115 19 -100 -29 c-85 -24 -111 -27 -183 -23 -45 3 -109 14
-140 25 -85 29 -61 11 49 -38 114 -49 152 -52 289 -19 103 24 125 25 193 4
l53 -16 -31 -32 c-34 -35 -51 -81 -51 -135 l0 -35 33 54 c47 80 85 97 246 114
142 15 146 17 244 98 94 78 197 122 197 84 0 -31 -16 -49 -101 -116 -83 -66
-89 -73 -105 -128 -20 -71 -28 -80 -83 -104 -24 -10 -61 -34 -82 -52 -23 -21
-51 -36 -75 -40 -22 -3 -64 -9 -94 -13 l-55 -7 60 -7 c33 -4 79 -10 101 -14
38 -7 45 -4 80 28 22 19 66 48 99 65 75 37 107 69 130 127 18 47 53 75 97 75
32 1 96 31 136 65 18 15 35 26 37 23 6 -6 -19 -109 -33 -135 -7 -13 -41 -46
-75 -73 -34 -28 -72 -59 -84 -70 -15 -12 -23 -30 -23 -50 0 -61 -35 -91 -135
-116 -63 -15 -29 -17 85 -4 97 11 123 30 135 98 7 45 34 74 83 90 30 10 34 9
42 -11 31 -73 30 -186 -2 -224 -11 -14 -11 -16 2 -8 83 49 95 80 86 224 -5 95
-4 109 14 139 22 37 33 35 55 -9 12 -23 14 -49 9 -122 -4 -52 -4 -110 0 -129
6 -35 42 -80 79 -100 18 -9 18 -8 1 16 -13 21 -16 42 -12 104 3 42 10 89 16
104 10 25 14 26 43 18 46 -14 77 -46 84 -92 12 -67 38 -86 135 -98 112 -13
149 -12 85 4 -100 25 -135 55 -135 116 0 33 -3 36 -109 122 -30 23 -62 59 -73
78 -17 35 -40 130 -31 130 3 0 19 -12 37 -27 38 -32 103 -62 134 -63 42 0 79
-27 97 -72 23 -58 59 -94 130 -130 33 -17 77 -46 99 -65 35 -32 42 -35 80 -28
22 4 68 10 101 14 l60 7 -55 7 c-30 4 -72 10 -94 13 -24 4 -52 19 -75 40 -21
18 -58 42 -83 53 -53 23 -57 27 -83 106 -17 50 -29 66 -75 103 -102 80 -130
108 -130 130 0 46 94 9 199 -78 87 -72 122 -87 226 -95 177 -13 214 -29 265
-119 l30 -51 0 35 c0 55 -17 101 -51 136 l-31 32 53 16 c68 21 90 20 191 -4
139 -33 178 -30 291 19 110 49 134 67 49 38 -33 -11 -95 -21 -147 -24 -76 -4
-103 -1 -174 21 -99 30 -117 31 -230 10 -178 -34 -291 -1 -410 120 -36 36 -62
68 -60 71 3 3 86 -11 185 -30 98 -19 192 -35 207 -35 16 0 68 10 117 21 109
26 139 22 219 -32 73 -48 133 -57 296 -40 100 10 114 14 160 46 28 19 64 49
80 66 l30 31 -52 -32 c-73 -46 -270 -80 -288 -50 -3 6 1 10 10 10 53 0 95 54
95 124 1 17 9 54 19 83 26 76 8 55 -25 -27 -15 -39 -38 -82 -51 -96 -28 -31
-46 -30 -222 6 l-113 24 -91 -19 c-102 -20 -146 -21 -180 -4 -79 41 -478 294
-506 321 -40 39 -57 75 -66 143 -4 28 -20 127 -35 220 -38 219 -54 375 -45
433 8 51 57 197 87 255 50 100 128 151 343 227 116 41 123 42 210 36 50 -3
173 -19 275 -36 210 -36 264 -57 343 -138 54 -55 137 -190 167 -271 28 -73 49
-94 143 -143 43 -22 101 -61 130 -87 59 -52 47 -31 -27 47 -28 30 -76 66 -106
82 -61 31 -74 49 -89 128 -13 61 -22 81 -85 176 -25 38 -44 71 -42 73 1 2 51
-15 109 -37 149 -56 254 -75 353 -64 l79 8 -85 7 c-120 10 -156 21 -325 104
-82 40 -178 83 -212 96 -35 13 -62 27 -60 31 4 15 125 112 211 169 149 101
272 153 436 187 40 8 41 10 13 11 -63 2 -190 -21 -260 -49 -40 -15 -145 -69
-233 -119 -199 -114 -276 -151 -315 -151 -16 0 -88 21 -160 46 -117 41 -138
46 -215 45 -104 -1 -190 8 -190 21 0 20 80 176 128 249 96 147 158 188 327
214 272 43 281 47 365 153 167 212 194 243 237 271 26 17 41 31 34 31 -32 0
-102 -49 -161 -113 -159 -172 -215 -223 -256 -235 -25 -7 -108 -12 -205 -12
-111 -1 -176 -5 -201 -14 -56 -20 -114 -69 -202 -170 -244 -281 -356 -383
-448 -411 -93 -27 -135 -16 -152 40 -9 33 -26 162 -36 283 -28 342 76 507 375
597 115 35 166 70 221 156 24 37 54 75 66 83 21 15 35 19 221 56 114 23 161
44 277 128 47 34 113 76 147 94 34 18 60 34 58 36 -7 8 -139 -60 -198 -102
-90 -64 -140 -84 -254 -101 -136 -21 -232 -20 -240 2 -4 11 3 24 23 40 74 60
81 70 102 157 12 47 43 137 71 201 27 63 48 115 46 115 -9 0 -100 -177 -126
-246 -35 -90 -53 -116 -99 -143 -55 -31 -77 -61 -95 -131 -34 -134 -99 -203
-229 -246 -44 -15 -112 -43 -151 -62 -94 -47 -170 -72 -217 -72 -48 0 -55 16
-64 135 -9 113 4 158 86 290 38 60 83 146 100 191 36 96 80 150 158 198 63 38
102 76 125 121 19 38 50 145 44 151 -2 3 -8 -8 -12 -23z"/>
<path d="M2785 5366 c-38 -16 -53 -35 -61 -74 -6 -32 -6 -32 34 -32 41 0 42 1
71 60 30 59 30 60 8 60 -12 -1 -36 -7 -52 -14z"/>
<path d="M3001 5320 c29 -59 30 -60 71 -60 40 0 40 0 34 32 -3 17 -12 38 -19
46 -15 18 -69 42 -96 42 -19 0 -18 -4 10 -60z"/>
<path d="M2166 5341 c-8 -12 33 -70 65 -93 14 -11 41 -23 60 -27 44 -10 109
-2 109 13 0 21 -63 88 -96 102 -37 16 -130 19 -138 5z"/>
<path d="M3530 5339 c-32 -13 -68 -47 -86 -81 -19 -36 -19 -35 24 -42 50 -8
111 10 145 42 33 31 59 76 50 86 -10 9 -105 6 -133 -5z"/>
<path d="M1665 5265 c7 -25 19 -53 26 -61 38 -46 128 -58 172 -24 23 18 25 24
15 50 -16 46 -43 60 -121 60 -38 0 -77 5 -87 10 -18 10 -19 8 -5 -35z"/>
<path d="M2069 5243 c-43 -85 -50 -172 -20 -220 25 -40 40 -41 80 -7 39 33 53
83 40 143 -12 59 -49 151 -60 151 -4 0 -22 -30 -40 -67z"/>
<path d="M3690 5253 c-45 -122 -43 -189 9 -235 40 -36 57 -35 82 5 30 47 23
132 -18 220 -18 37 -36 67 -42 67 -5 0 -19 -26 -31 -57z"/>
<path d="M4160 5300 c-8 -6 -47 -10 -85 -10 -80 0 -107 -13 -123 -60 -10 -26
-8 -32 16 -51 22 -17 37 -20 81 -17 47 4 59 10 81 37 23 27 54 100 47 107 -1
2 -9 -1 -17 -6z"/>
<path d="M2840 5217 c0 -9 -22 -39 -50 -66 -52 -52 -58 -72 -38 -116 24 -53
107 -18 129 55 14 47 5 101 -21 125 -18 16 -20 16 -20 2z"/>
<path d="M2961 5199 c-24 -40 -26 -77 -7 -123 27 -65 102 -90 124 -41 20 43
14 66 -27 104 -22 20 -47 49 -55 65 l-15 29 -20 -34z"/>
<path d="M1571 5177 c-38 -124 -12 -220 71 -263 71 -37 108 -8 108 85 0 70
-48 134 -142 194 -27 16 -27 16 -37 -16z"/>
<path d="M2392 5190 c-43 -26 -66 -80 -57 -132 l7 -40 20 22 c11 11 44 32 73
45 60 26 77 57 56 101 -13 30 -53 32 -99 4z"/>
<path d="M3346 5194 c-19 -19 -21 -54 -3 -77 6 -9 33 -25 59 -36 26 -11 56
-29 67 -40 l20 -20 7 35 c17 93 -94 195 -150 138z"/>
<path d="M4216 5189 c-85 -52 -136 -124 -136 -191 0 -91 37 -121 108 -84 73
38 100 109 82 217 -7 38 -15 71 -18 73 -4 2 -20 -5 -36 -15z"/>
<path d="M1457 5143 c-22 -21 14 -133 43 -133 18 0 11 72 -11 106 -22 37 -23
37 -32 27z"/>
<path d="M4341 5116 c-21 -33 -29 -106 -13 -106 20 0 45 42 49 83 7 57 -9 67
-36 23z"/>
<path d="M2213 5005 c-48 -38 -57 -125 -13 -125 36 0 58 32 62 93 5 65 -1 69
-49 32z"/>
<path d="M3568 4973 c3 -42 9 -63 24 -75 44 -38 77 -10 63 52 -6 28 -59 80
-82 80 -6 0 -8 -23 -5 -57z"/>
<path d="M2417 5001 c-17 -6 -16 -11 15 -51 66 -87 136 -115 214 -85 38 14 44
20 38 38 -21 71 -83 107 -184 106 -36 0 -73 -4 -83 -8z"/>
<path d="M3220 4988 c-27 -14 -51 -36 -62 -58 -18 -35 -18 -35 2 -52 25 -21
81 -33 113 -24 38 9 89 48 125 96 31 40 32 45 15 51 -10 4 -47 8 -83 8 -50 1
-77 -5 -110 -21z"/>
<path d="M1806 4969 c-10 -53 -7 -82 14 -116 24 -40 47 -42 61 -6 12 33 -10
99 -45 132 l-23 22 -7 -32z"/>
<path d="M3991 4977 c-45 -48 -59 -141 -24 -154 39 -15 74 76 56 145 l-8 33
-24 -24z"/>
<path d="M1273 4920 c-38 -18 -79 -30 -104 -30 l-40 0 20 -29 c45 -63 158 -89
238 -56 77 33 90 63 47 114 -34 41 -78 41 -161 1z"/>
<path d="M4396 4919 c-33 -39 -33 -62 0 -88 64 -50 173 -54 243 -8 22 15 45
36 51 47 10 18 8 20 -29 20 -23 0 -66 12 -103 30 -84 40 -128 40 -162 -1z"/>
<path d="M2332 4893 c-46 -22 -72 -70 -71 -129 0 -27 4 -57 7 -66 7 -17 9 -16
40 2 49 30 72 75 72 142 0 31 -4 59 -8 62 -4 2 -22 -2 -40 -11z"/>
<path d="M3456 4903 c-3 -4 -6 -31 -6 -62 0 -66 23 -111 72 -141 31 -18 33
-19 40 -2 12 31 8 112 -6 141 -20 37 -85 79 -100 64z"/>
<path d="M2688 4844 c-22 -11 -28 -22 -28 -47 1 -31 29 -97 30 -68 0 7 11 26
25 43 28 33 31 47 13 71 -12 14 -16 14 -40 1z"/>
<path d="M3100 4841 c-15 -28 -13 -34 19 -75 28 -35 30 -36 40 -17 6 11 11 33
11 50 0 24 -7 34 -30 46 -27 14 -30 14 -40 -4z"/>
<path d="M2460 4803 c0 -20 -10 -67 -22 -105 -26 -81 -20 -111 31 -145 30 -20
37 -22 55 -10 45 30 61 65 61 132 0 72 -17 103 -75 143 -44 30 -50 28 -50 -15z"/>
<path d="M3319 4817 c-95 -63 -103 -214 -13 -274 18 -12 25 -10 55 10 51 34
57 64 31 145 -12 38 -22 85 -22 105 0 43 -5 45 -51 14z"/>
<path d="M1540 4813 c-38 -14 -81 -72 -111 -149 l-9 -26 31 26 c17 14 36 27
42 27 7 1 36 3 65 4 65 4 92 25 92 71 0 27 -5 34 -31 43 -34 12 -55 13 -79 4z"/>
<path d="M4208 4809 c-23 -9 -28 -17 -28 -43 0 -47 26 -66 98 -70 58 -4 122
-30 122 -50 0 -5 3 -7 6 -4 10 10 -44 112 -74 141 -32 31 -83 42 -124 26z"/>
<path d="M1046 4782 c-17 -28 -26 -106 -16 -143 10 -37 72 -119 90 -119 15 0
32 99 25 140 -4 23 -21 60 -38 82 -33 43 -51 55 -61 40z"/>
<path d="M4731 4753 c-32 -38 -51 -88 -51 -132 0 -30 21 -101 30 -101 13 0 58
47 73 76 8 17 18 45 22 64 6 38 -14 121 -32 127 -6 2 -25 -13 -42 -34z"/>
<path d="M1725 4706 c-40 -17 -82 -67 -95 -114 -12 -46 -12 -48 1 -96 11 -38
11 -38 26 -16 9 13 53 40 98 61 45 21 85 45 89 54 3 9 6 36 6 60 0 34 -5 47
-19 55 -26 14 -69 12 -106 -4z"/>
<path d="M3997 4705 c-17 -17 -23 -78 -11 -110 4 -9 44 -33 89 -54 45 -21 89
-48 98 -61 15 -22 16 -22 27 20 27 102 -41 206 -142 217 -33 4 -49 1 -61 -12z"/>
<path d="M1280 4678 c-48 -47 -70 -88 -70 -128 0 -43 28 -90 64 -109 24 -13
29 -13 54 6 15 11 34 32 42 46 16 29 10 59 -33 160 l-24 58 -33 -33z"/>
<path d="M4492 4651 c-43 -101 -48 -129 -32 -158 8 -14 27 -35 42 -46 25 -19
30 -19 54 -6 37 19 64 66 64 110 0 39 -45 117 -83 142 -21 14 -23 12 -45 -42z"/>
<path d="M1973 4649 c-17 -11 -39 -31 -47 -44 l-16 -25 50 0 c59 0 106 21 115
51 14 42 -48 53 -102 18z"/>
<path d="M2718 4658 c-4 -10 -29 -33 -57 -53 -57 -41 -64 -54 -50 -95 13 -35
35 -39 71 -10 35 27 50 68 46 126 -2 31 -6 43 -10 32z"/>
<path d="M3100 4626 c0 -57 20 -108 51 -130 35 -24 56 -20 68 15 13 39 3 60
-44 89 -19 12 -44 33 -55 47 l-20 26 0 -47z"/>
<path d="M3761 4661 c-20 -13 -4 -49 29 -66 16 -8 52 -15 80 -15 47 0 50 1 40
20 -26 48 -112 84 -149 61z"/>
<path d="M1465 4529 c-80 -89 -95 -183 -41 -254 33 -43 56 -44 102 -2 43 39
57 90 43 160 -10 58 -44 137 -57 137 -5 0 -26 -19 -47 -41z"/>
<path d="M2015 4550 c-54 -28 -109 -75 -102 -87 12 -20 128 -45 174 -38 49 7
113 61 113 95 0 50 -110 68 -185 30z"/>
<path d="M3653 4555 c-13 -9 -23 -23 -23 -31 0 -48 81 -105 147 -103 50 1 138
32 138 49 0 7 -26 31 -58 53 -49 35 -66 42 -120 45 -46 2 -68 -1 -84 -13z"/>
<path d="M4289 4525 c-47 -106 -40 -204 17 -254 45 -40 67 -39 100 4 38 50 43
117 15 174 -24 45 -87 121 -103 121 -5 0 -18 -20 -29 -45z"/>
<path d="M895 4550 c-8 -12 53 -50 82 -50 28 0 53 10 53 21 0 27 -120 53 -135
29z"/>
<path d="M4828 4544 c-16 -8 -28 -19 -28 -23 0 -11 25 -21 53 -21 29 0 90 38
82 50 -9 15 -76 11 -107 -6z"/>
<path d="M960 4419 c-41 -20 -82 -32 -112 -33 l-47 -1 32 -33 c45 -47 81 -64
142 -64 65 -1 115 16 145 47 20 22 21 27 10 54 -14 35 -49 61 -82 61 -13 0
-52 -14 -88 -31z"/>
<path d="M2253 4436 c-28 -10 -113 -78 -113 -91 0 -11 78 -36 114 -37 33 0 45
6 68 31 32 36 35 62 11 83 -28 23 -46 26 -80 14z"/>
<path d="M3530 4443 c-26 -10 -50 -35 -50 -54 0 -10 13 -33 29 -51 34 -38 72
-42 145 -14 l47 18 -47 41 c-64 57 -93 71 -124 60z"/>
<path d="M4727 4424 c-37 -36 -42 -61 -20 -86 28 -31 79 -49 143 -49 66 -1
101 14 147 63 l32 33 -47 1 c-30 1 -70 12 -112 33 -79 38 -109 39 -143 5z"/>
<path d="M1902 4303 c6 -115 37 -169 110 -187 25 -6 28 -3 39 33 6 22 9 55 5
76 -9 44 -65 109 -119 136 l-39 21 4 -79z"/>
<path d="M3889 4360 c-51 -27 -107 -92 -115 -135 -4 -21 -1 -54 5 -76 11 -36
14 -39 39 -33 68 17 103 71 110 170 6 92 4 96 -39 74z"/>
<path d="M1765 4348 c4 -9 0 -41 -9 -72 -22 -75 -21 -83 17 -106 l32 -20 18
21 c32 40 15 121 -37 169 -19 17 -25 19 -21 8z"/>
<path d="M4042 4338 c-52 -56 -67 -128 -34 -167 l17 -21 33 20 c37 23 37 27
16 109 -8 34 -12 66 -9 71 11 17 -1 11 -23 -12z"/>
<path d="M1608 4290 c-36 -36 -40 -44 -35 -76 8 -46 8 -46 45 -33 34 12 38 20
45 102 3 27 0 47 -5 47 -6 0 -28 -18 -50 -40z"/>
<path d="M2450 4323 c-35 -13 -72 -47 -96 -90 -33 -55 -26 -63 61 -63 90 0
138 34 146 105 3 23 -1 32 -21 42 -26 13 -64 16 -90 6z"/>
<path d="M3293 4320 c-15 -6 -23 -18 -23 -34 0 -75 52 -116 145 -115 98 1 102
5 58 68 -55 78 -117 106 -180 81z"/>
<path d="M4167 4283 c7 -82 11 -90 44 -102 18 -6 33 -11 35 -11 11 0 14 67 4
91 -10 24 -64 69 -82 69 -3 0 -4 -21 -1 -47z"/>
<path d="M1104 4250 c-64 -32 -122 -75 -114 -84 12 -12 127 -36 170 -36 49 0
116 27 139 54 18 22 8 42 -39 74 -44 30 -85 28 -156 -8z"/>
<path d="M4570 4258 c-47 -32 -57 -52 -39 -74 23 -27 90 -54 139 -54 43 0 158
24 170 36 9 10 -52 54 -115 85 -72 35 -111 37 -155 7z"/>
<path d="M2616 4254 c-12 -12 -16 -33 -14 -84 1 -47 -3 -74 -13 -86 -13 -16
-12 -16 20 0 55 29 81 61 81 100 0 75 -36 109 -74 70z"/>
<path d="M3150 4244 c-26 -67 -1 -122 73 -161 27 -14 28 -13 18 6 -6 11 -11
49 -11 85 0 45 -5 69 -16 80 -24 24 -53 20 -64 -10z"/>
<path d="M2148 4221 c2 -24 -4 -62 -17 -96 -30 -81 -28 -107 14 -144 20 -17
40 -31 46 -31 41 0 89 78 89 143 0 46 -39 118 -79 144 -48 32 -57 30 -53 -16z"/>
<path d="M3660 4253 c-60 -23 -109 -95 -110 -160 0 -65 48 -143 89 -143 6 0
26 14 46 31 42 37 44 60 14 145 -11 32 -19 76 -17 97 2 20 1 37 -2 36 -3 0
-12 -3 -20 -6z"/>
<path d="M724 4115 c-9 -38 4 -75 38 -107 41 -38 58 -36 58 7 0 48 -24 91 -60
110 -29 15 -30 15 -36 -10z"/>
<path d="M5068 4124 c-35 -18 -58 -62 -58 -109 0 -39 13 -44 48 -19 29 20 52
66 52 103 0 38 -8 43 -42 25z"/>
<path d="M1291 4095 c-24 -21 -81 -118 -81 -139 0 -3 16 6 36 19 29 20 50 25
95 25 69 0 99 21 99 70 0 24 -6 33 -26 40 -45 18 -90 12 -123 -15z"/>
<path d="M4410 4102 c-18 -15 -21 -24 -15 -50 8 -41 30 -52 98 -52 41 0 63 -6
91 -25 l37 -25 -6 22 c-12 40 -54 106 -81 127 -33 26 -94 28 -124 3z"/>
<path d="M902 4011 c-25 -83 -9 -151 49 -207 39 -37 52 -23 57 59 3 47 0 73
-13 98 -18 35 -63 89 -75 89 -4 0 -12 -17 -18 -39z"/>
<path d="M4878 4023 c-40 -43 -58 -87 -58 -142 0 -49 16 -101 31 -101 11 0 70
70 80 97 17 45 3 173 -20 173 -4 0 -19 -12 -33 -27z"/>
<path d="M1585 4000 c-11 -4 -36 -24 -54 -44 l-35 -36 53 0 c60 0 107 20 116
51 11 34 -31 50 -80 29z"/>
<path d="M2360 3999 c-64 -26 -103 -108 -65 -136 23 -16 79 -17 108 -2 48 26
137 117 137 140 0 12 -149 10 -180 -2z"/>
<path d="M3290 4001 c0 -17 72 -96 113 -123 44 -31 101 -37 132 -15 39 29 -2
111 -68 136 -34 13 -177 15 -177 2z"/>
<path d="M4171 4002 c-20 -14 -4 -50 29 -67 16 -8 53 -15 82 -15 l53 0 -41 40
c-41 42 -95 60 -123 42z"/>
<path d="M1785 3914 c-27 -13 -60 -23 -72 -21 -13 2 -23 1 -23 -2 0 -10 62
-67 87 -80 53 -27 131 -3 158 49 15 29 15 31 -9 55 -32 32 -74 32 -141 -1z"/>
<path d="M3904 3915 c-24 -24 -24 -26 -9 -55 27 -52 105 -76 158 -49 26 13 87
70 87 80 0 4 -9 5 -19 2 -11 -3 -45 7 -77 21 -72 33 -108 33 -140 1z"/>
<path d="M648 3925 c-22 -22 58 -108 114 -123 38 -10 118 -5 118 8 0 15 -46
74 -73 94 -28 20 -144 36 -159 21z"/>
<path d="M5045 3914 c-16 -8 -38 -23 -49 -32 -22 -21 -50 -72 -42 -80 3 -3 32
-5 65 -5 71 0 117 25 149 81 12 22 22 42 22 46 0 13 -116 5 -145 -10z"/>
<path d="M1123 3900 c-41 -24 -55 -52 -51 -98 3 -33 6 -37 28 -34 38 4 52 25
55 80 1 27 5 55 9 61 11 16 -5 13 -41 -9z"/>
<path d="M4670 3894 c6 -14 10 -42 10 -63 0 -42 14 -59 51 -63 21 -3 24 1 27
34 4 46 -10 74 -51 98 -42 26 -48 25 -37 -6z"/>
<path d="M4516 3834 c-32 -83 -29 -109 18 -139 22 -15 27 -15 49 -1 25 17 47
56 47 85 0 19 -48 99 -71 118 -12 9 -19 -2 -43 -63z"/>
<path d="M1240 3858 c-17 -23 -33 -52 -36 -65 -8 -31 12 -78 43 -98 22 -15 26
-15 49 0 47 30 50 57 19 135 -15 38 -32 70 -37 70 -4 0 -22 -19 -38 -42z"/>
<path d="M1436 3809 c-40 -47 -59 -89 -59 -130 0 -41 35 -99 59 -99 47 0 84
54 83 122 0 48 -28 129 -45 135 -6 2 -23 -10 -38 -28z"/>
<path d="M2400 3813 c-29 -27 -30 -29 -15 -50 19 -27 49 -29 105 -7 22 9 54
14 70 12 l30 -5 -22 25 c-55 58 -120 68 -168 25z"/>
<path d="M3305 3821 c-16 -10 -38 -27 -47 -38 -17 -19 -17 -19 12 -15 16 2 48
-3 70 -12 56 -22 86 -20 105 7 15 21 14 23 -15 50 -36 32 -81 35 -125 8z"/>
<path d="M4333 3803 c-9 -21 -18 -63 -20 -93 -5 -65 20 -115 63 -126 22 -6 32
-2 50 21 32 41 37 80 16 129 -21 45 -68 106 -83 106 -6 0 -17 -17 -26 -37z"/>
<path d="M1958 3794 c-35 -19 -48 -43 -48 -91 1 -34 48 -146 50 -116 0 7 15
30 34 50 43 49 56 75 56 111 0 30 -26 62 -51 62 -8 -1 -26 -7 -41 -16z"/>
<path d="M3797 3792 c-33 -37 -20 -88 39 -155 19 -20 34 -43 34 -50 2 -30 49
82 50 116 0 49 -13 73 -50 92 -38 20 -53 19 -73 -3z"/>
<path d="M1620 3706 c0 -116 29 -169 98 -182 42 -8 62 12 62 63 0 46 -19 79
-77 134 -88 83 -83 84 -83 -15z"/>
<path d="M4142 3735 c-35 -32 -70 -71 -78 -86 -18 -35 -18 -89 -1 -114 30 -40
126 12 142 78 3 12 5 58 3 101 l-3 80 -63 -59z"/>
<path d="M5058 3753 c7 -3 16 -2 19 1 4 3 -2 6 -13 5 -11 0 -14 -3 -6 -6z"/>
<path d="M730 3708 c-59 -41 -75 -72 -75 -148 0 -78 8 -94 32 -61 8 13 41 34
72 47 91 40 99 45 111 75 13 30 5 89 -14 101 -24 16 -93 8 -126 -14z"/>
<path d="M4967 3723 c-13 -24 -16 -69 -7 -98 9 -28 22 -38 87 -66 41 -19 84
-45 95 -58 26 -34 38 -15 38 60 0 96 -69 169 -161 169 -26 0 -50 -3 -52 -7z"/>
<path d="M983 3630 c-34 -20 -93 -94 -93 -115 0 -26 111 -33 165 -11 36 15 54
41 66 94 6 29 4 34 -18 43 -39 15 -85 11 -120 -11z"/>
<path d="M4723 3640 c-18 -7 -20 -13 -14 -42 12 -53 30 -79 66 -94 35 -14 98
-17 148 -5 l29 6 -34 50 c-56 83 -125 113 -195 85z"/>
<path d="M1189 3506 c-42 -41 -44 -45 -25 -50 61 -16 113 1 137 46 9 18 8 24
-7 35 -30 22 -57 14 -105 -31z"/>
<path d="M4536 3537 c-15 -11 -16 -17 -7 -35 24 -45 76 -62 137 -46 20 5 17 9
-26 50 -49 46 -74 53 -104 31z"/>
<path d="M1095 3390 c-29 -15 -62 -30 -71 -32 -14 -2 -9 -11 24 -37 73 -57
155 -53 188 11 13 25 12 29 -9 52 -33 38 -68 39 -132 6z"/>
<path d="M4634 3410 c-12 -5 -29 -19 -38 -31 -14 -21 -14 -25 1 -48 25 -40 44
-50 89 -51 30 0 52 8 82 29 48 35 59 51 37 51 -9 0 -35 11 -58 24 -52 29 -85
37 -113 26z"/>
<path d="M1920 3387 c-25 -12 -63 -78 -74 -130 -7 -28 -6 -28 16 -13 12 9 40
16 61 16 59 0 103 23 116 60 16 47 15 49 -24 66 -42 17 -62 18 -95 1z"/>
<path d="M3818 3388 c-23 -8 -28 -16 -28 -42 0 -48 35 -76 107 -86 32 -4 66
-10 75 -15 16 -6 17 -4 4 39 -31 102 -79 133 -158 104z"/>
<path d="M2103 3370 c-27 -11 -34 -37 -31 -105 1 -27 -2 -58 -6 -69 -8 -17 -7
-17 20 -3 36 19 70 55 78 83 7 21 -20 105 -33 103 -3 0 -16 -4 -28 -9z"/>
<path d="M3680 3349 c-28 -67 -7 -119 64 -156 27 -14 28 -14 20 3 -4 11 -7 46
-6 79 3 64 -8 89 -44 99 -17 5 -24 0 -34 -25z"/>
<path d="M583 3340 c21 -102 115 -157 197 -115 38 19 40 56 5 90 -21 22 -33
25 -92 25 -48 0 -76 5 -92 17 l-24 16 6 -33z"/>
<path d="M820 3356 c0 -17 31 -64 59 -91 27 -25 41 -30 97 -33 36 -3 70 0 75
5 12 12 -25 68 -64 97 -20 15 -47 21 -97 24 -39 2 -70 1 -70 -2z"/>
<path d="M4870 3349 c-46 -19 -110 -96 -93 -113 13 -12 116 -5 149 10 29 14
84 84 84 107 0 11 -112 7 -140 -4z"/>
<path d="M5220 3350 c-8 -5 -46 -10 -83 -10 -59 0 -71 -3 -92 -25 -54 -53 -8
-113 77 -102 54 7 86 31 109 80 28 62 24 80 -11 57z"/>
<path d="M1522 3270 c-41 -25 -41 -60 1 -74 20 -8 41 -5 81 8 30 10 64 16 76
13 22 -6 22 -6 -1 20 -52 55 -103 66 -157 33z"/>
<path d="M4195 3271 c-16 -10 -38 -27 -48 -38 -17 -20 -17 -20 8 -16 13 3 43
-2 65 -11 70 -28 120 -17 120 26 0 22 -56 58 -90 58 -14 0 -38 -8 -55 -19z"/>
<path d="M1412 3168 c-33 -42 -18 -99 43 -158 21 -20 35 -44 35 -58 0 -31 15
-20 40 28 24 47 26 100 5 140 -25 48 -99 77 -123 48z"/>
<path d="M4342 3168 c-12 -6 -32 -27 -43 -45 -27 -43 -22 -105 12 -160 23 -36
24 -37 27 -13 2 13 23 46 47 72 50 55 61 88 43 126 -15 30 -49 38 -86 20z"/>
<path d="M1126 3139 c-29 -22 -34 -65 -16 -115 l11 -27 39 38 c27 27 40 48 40
66 0 62 -26 76 -74 38z"/>
<path d="M4642 3148 c-25 -25 -14 -72 27 -112 38 -37 40 -37 50 -18 12 23 14
91 3 108 -8 12 -46 34 -59 34 -5 0 -14 -5 -21 -12z"/>
<path d="M712 3123 c-32 -16 -88 -76 -110 -119 -10 -19 -8 -23 11 -28 43 -11
122 -6 157 12 40 20 80 74 80 108 0 44 -75 58 -138 27z"/>
<path d="M4996 3128 c-37 -29 6 -117 70 -144 35 -15 126 -18 157 -6 16 7 15
12 -14 55 -17 26 -47 60 -66 74 -41 31 -118 42 -147 21z"/>
<path d="M964 3112 c-6 -4 -19 -23 -29 -42 -9 -19 -24 -43 -33 -52 -14 -17
-13 -18 12 -18 33 0 87 22 103 42 7 8 16 29 19 46 6 31 5 32 -27 32 -19 0 -39
-4 -45 -8z"/>
<path d="M4794 3088 c3 -17 12 -38 19 -46 16 -20 70 -42 103 -42 25 0 26 1 12
18 -9 9 -24 33 -33 52 -22 43 -31 50 -74 50 -32 0 -33 -1 -27 -32z"/>
<path d="M842 2953 c23 -84 66 -123 136 -123 51 0 95 33 87 64 -4 11 -18 31
-31 44 -21 18 -37 22 -92 22 -44 0 -75 5 -89 15 -21 15 -21 15 -11 -22z"/>
<path d="M4976 2975 c-13 -10 -43 -15 -87 -15 -56 0 -72 -4 -93 -22 -38 -36
-41 -62 -10 -87 31 -25 92 -28 132 -7 28 15 65 72 76 119 7 31 7 31 -18 12z"/>
<path d="M1312 2946 c-20 -44 -24 -94 -12 -131 12 -36 64 -105 80 -105 13 0
30 60 30 107 0 47 -19 93 -53 131 -26 28 -31 28 -45 -2z"/>
<path d="M4473 2948 c-34 -38 -53 -84 -53 -131 0 -47 17 -107 30 -107 16 0 68
69 80 105 12 37 8 87 -12 131 -14 30 -19 30 -45 2z"/>
<path d="M762 2800 c-36 -22 -62 -72 -62 -120 0 -30 0 -30 28 -17 15 8 52 17
82 20 63 7 100 39 100 86 0 51 -86 68 -148 31z"/>
<path d="M1186 2795 c-9 -13 -16 -31 -16 -40 0 -22 24 -67 48 -88 19 -17 20
-16 36 26 20 54 20 91 0 111 -23 23 -49 20 -68 -9z"/>
<path d="M4577 2802 c-21 -23 -21 -55 2 -111 l17 -43 27 32 c35 42 44 77 26
109 -18 32 -50 38 -72 13z"/>
<path d="M4943 2808 c-16 -8 -23 -20 -23 -39 0 -47 37 -79 100 -86 30 -3 67
-12 83 -20 27 -13 27 -13 27 17 0 101 -101 170 -187 128z"/>
<path d="M1043 2741 c-78 -48 -63 -172 28 -225 30 -18 32 -18 25 -1 -3 10 5
50 19 92 28 80 24 110 -20 139 -18 12 -25 11 -52 -5z"/>
<path d="M4725 2737 c-34 -29 -35 -71 -5 -147 12 -29 19 -62 17 -72 -5 -17 -4
-17 25 -1 90 53 101 185 19 227 -28 15 -31 15 -56 -7z"/>
<path d="M885 2651 c-70 -32 -105 -86 -105 -162 0 -45 6 -47 59 -19 67 34 97
90 89 168 l-3 31 -40 -18z"/>
<path d="M4902 2611 c5 -71 26 -105 84 -138 55 -32 64 -30 64 17 0 77 -39 134
-114 165 l-38 16 4 -60z"/>
<path d="M941 2501 c-30 -57 -27 -121 6 -182 29 -54 39 -53 67 5 30 64 14 157
-34 201 -18 16 -20 15 -39 -24z"/>
<path d="M4834 2504 c-37 -48 -44 -133 -16 -183 25 -46 36 -48 63 -10 33 47
38 132 10 187 -12 23 -23 42 -26 42 -2 0 -16 -16 -31 -36z"/>
<path d="M1072 2327 c-30 -32 -28 -71 9 -141 17 -32 29 -67 26 -77 -8 -30 29
-5 59 41 23 34 26 48 22 92 -4 42 -11 57 -37 80 -38 34 -51 35 -79 5z"/>
<path d="M4679 2322 c-26 -23 -33 -38 -37 -80 -4 -44 -1 -58 22 -92 30 -46 67
-71 59 -41 -3 10 9 45 26 77 37 71 40 112 8 142 -30 29 -40 28 -78 -6z"/>
<path d="M922 2227 c-28 -30 -28 -65 1 -107 31 -47 42 -47 61 2 22 60 21 94
-6 112 -29 21 -30 20 -56 -7z"/>
<path d="M4852 2234 c-13 -9 -22 -26 -22 -42 0 -31 29 -112 41 -112 17 0 59
68 59 97 0 27 -30 73 -48 73 -4 0 -18 -7 -30 -16z"/>
<path d="M1042 2068 c-17 -17 -15 -35 8 -58 29 -29 40 -25 40 15 0 39 -28 63
-48 43z"/>
<path d="M4753 2048 c-6 -7 -14 -30 -17 -51 -7 -37 -6 -38 16 -32 37 12 59 37
56 64 -3 29 -38 41 -55 19z"/>
</g>
</svg>
